<?xml version="1.0" encoding="utf-8"?>
<!-- Generator: Adobe Illustrator 25.4.1, SVG Export Plug-In . SVG Version: 6.00 Build 0)  -->
<svg version="1.1" id="Layer_1" xmlns="http://www.w3.org/2000/svg" xmlns:xlink="http://www.w3.org/1999/xlink" x="0px" y="0px"
	 viewBox="0 0 56 56" style="enable-background:new 0 0 56 56;" xml:space="preserve">
<style type="text/css">
	.st0{fill:#ED1C24;}
	.st1{fill:#052718;}
</style>
<g id="Layer_2_00000165235400619770208720000008702978553685236159_">
	<g id="Layer_1-2">
		<path class="st0" d="M40.2,45.1c-0.5,0-0.9,0-1.3,0h-1.1c-0.2,0-0.2,0-0.2-0.3c0-1.9,0-3.8,0-5.7c0-1.7,0-3.3,0-5
			c0-1.8,0-3.5,0-5.3c0-0.5,0-1,0-1.5c0-0.1,0-0.1,0-0.2l2.5,0c0.1,0,0.1,0.1,0.1,0.2c0,1.1,0,2.2,0,3.3c0,1.5,0,2.9,0,4.4
			c0,2.3,0,4.6,0,6.9c0,0.9,0,1.9,0,2.8L40.2,45.1z"/>
		<path class="st0" d="M27.1,45.2c0-0.7,0-1.3,0-1.9c0-1.4,0-2.8,0-4.2c0-3,0-6,0-8.9c0-0.9,0-1.8,0-2.7c0-0.1,0-0.2,0.2-0.2
			c0.8,0,1.5,0,2.3,0c0.1,0,0.2,0,0.2,0.2c0,2.7,0,5.3,0,8c0,1.8,0,3.6,0,5.3c0,1.4,0,2.8,0,4.2c0,0.1,0,0.2-0.1,0.2L27.1,45.2z"/>
		<path class="st0" d="M16.1,27.3l1.8,0c0.2,0,0.5,0,0.7,0c0.1,0,0.2,0,0.2,0.2c0,1,0,2.1,0,3.1c0,2.3,0,4.6,0,6.9
			c0,1.9,0,3.8,0,5.7c0,0.6,0,1.1,0,1.7c0,0.1,0,0.2-0.2,0.2c-0.8,0-1.6,0-2.3,0c-0.1,0-0.2,0-0.2-0.2c0-2.2,0-4.4,0-6.6
			c0-1.6,0-3.2,0-4.9c0-1.9,0-3.8,0-5.7C16.1,27.7,16.1,27.5,16.1,27.3z"/>
		<path class="st0" d="M38.8,45.4c0.9,0,1.9,0,2.8,0c0.1,0,0.1,0,0.1,0.1c0,0.5,0,1.1,0,1.6c0,0.1,0,0.2-0.2,0.2c-0.9,0-1.9,0-2.8,0
			c-0.9,0-1.8,0-2.8,0c-0.1,0-0.2,0-0.2-0.2c0-0.5,0-1,0-1.5c0-0.2,0.1-0.2,0.2-0.2C37,45.4,37.9,45.4,38.8,45.4L38.8,45.4z"/>
		<path class="st0" d="M28.4,45.4c0.9,0,1.9,0,2.8,0c0.1,0,0.2,0,0.2,0.2c0,0.5,0,1,0,1.5c0,0.2-0.1,0.2-0.2,0.2c-0.9,0-1.9,0-2.8,0
			c-0.9,0-1.8,0-2.7,0c-0.1,0-0.2,0-0.2-0.2c0-0.5,0-1,0-1.6c0-0.1,0-0.2,0.2-0.2C26.5,45.4,27.4,45.4,28.4,45.4L28.4,45.4z"/>
		<path class="st0" d="M14.4,47.3c0-0.6,0-1.2,0-1.8c0-0.1,0.1-0.1,0.1-0.1c1.3,0,2.6,0,3.9,0c0.6,0,1.1,0,1.7,0
			c0.1,0,0.2,0,0.2,0.2c0,0.5,0,1.1,0,1.6c0,0.2-0.1,0.1-0.2,0.1l-2.4,0l-3.1,0C14.5,47.4,14.4,47.4,14.4,47.3z"/>
		<path class="st0" d="M28.4,25.1c0.9,0,1.8,0,2.7,0c0.2,0,0.2,0,0.2,0.2c0,0.5,0,1,0,1.5c0,0.2-0.1,0.2-0.2,0.2c-0.9,0-1.8,0-2.6,0
			l-2.8,0c-0.2,0-0.2,0-0.2-0.2c0-0.5,0-1,0-1.5c0-0.1,0-0.2,0.2-0.2C26.6,25.1,27.5,25.1,28.4,25.1z"/>
		<path class="st0" d="M38.8,25l2.6,0c0.3,0,0.3,0,0.3,0.3c0,0.5,0,0.9,0,1.4c0,0.2-0.1,0.2-0.2,0.2c-0.9,0-1.7,0-2.6,0
			c-0.9,0-1.9,0-2.8,0c-0.1,0-0.1,0-0.2,0c-0.1,0-0.2-0.1-0.2-0.2c0-0.5,0-1.1,0-1.6c0-0.1,0-0.1,0.1-0.1C36.9,25,37.9,25,38.8,25
			L38.8,25z"/>
		<path class="st0" d="M20.4,27c-0.4,0-0.7,0-1.1,0h-4.5c-0.3,0-0.2,0-0.2-0.2c0-0.5,0-1,0-1.5c0-0.1,0-0.2,0.2-0.2
			c1.8,0,3.7,0,5.5,0c0.2,0,0.2,0,0.2,0.2v1.4C20.4,26.8,20.4,26.9,20.4,27z"/>
		<path class="st1" d="M30.4,24.4h-1.3c0.1-0.4,0.1-0.7,0.2-1c0.3-1.2,1.1-2.2,2.2-2.9c1.1-0.6,2.3-0.9,3.5-0.8
			c0.6,0.1,1.3,0.2,1.8,0.5c1,0.5,1.7,1.2,2.2,2.2c0.3,0.5,0.4,1.1,0.5,1.7c0,0.1,0,0.2-0.2,0.2c-0.3,0-0.6,0-0.9,0
			c-0.1,0-0.1,0-0.1-0.1c0-0.8-0.3-1.5-0.8-2.1c-1.4-1.7-3.9-2-5.6-0.6c0,0,0,0,0,0c-0.8,0.7-1.4,1.7-1.4,2.7
			C30.4,24.3,30.4,24.4,30.4,24.4z"/>
		<path class="st1" d="M27.2,24.2c-0.1-1.1-0.5-2.1-1.3-2.9c-1.2-1.2-2.7-1.7-4.4-1.6c0,0-0.1,0-0.1,0c-0.1,0-0.3,0-0.4,0.1l0,0
			c-0.3,0.1-0.6,0.1-0.9,0.3c-1.2,0.4-2.3,1.3-2.8,2.5c-0.3,0.5-0.4,1.1-0.4,1.7c0,0.1,0,0.2,0.2,0.2c0.3,0,0.6,0,1,0
			c0.1,0,0.1-0.1,0.2-0.2c0-0.4,0.1-0.8,0.3-1.2c0.5-1.2,1.4-2,2.7-2.4c0,0,0.1,0,0.1,0c0.1,0,0.2,0,0.3,0c0.1,0,0.2,0,0.2,0
			c0.4,0,0.7,0,1.1,0.1c0.8,0.1,1.6,0.5,2.1,1.1c0.7,0.7,1.1,1.5,1.1,2.5c0,0.1,0,0.1,0.1,0.1c0.3,0,0.6,0,0.9,0
			C27.1,24.4,27.2,24.4,27.2,24.2z"/>
		<path d="M16.1,24.6c-0.3,0-0.5,0-0.8,0c0,0-0.1-0.1-0.1-0.1c-0.1-1-0.1-2.1,0.2-3.1c0.3-1.2,0.8-2.3,1.6-3.3
			c0.7-1,1.6-1.9,2.7-2.7c0.9-0.6,1.8-1.2,2.9-1.6c0.8-0.3,1.7-0.6,2.6-0.7c1.5-0.3,3.1-0.4,4.6-0.2c1.2,0.1,2.3,0.3,3.5,0.7
			c1.1,0.4,2.2,0.9,3.2,1.5c1.1,0.7,2.1,1.7,2.9,2.7c0.6,0.8,1.1,1.7,1.4,2.7c0.4,1.2,0.6,2.5,0.4,3.8c0,0.1-0.1,0.2-0.2,0.2
			c-0.2,0-0.4,0-0.5,0c-0.1,0-0.1,0-0.1-0.1c0-0.6,0-1.1,0-1.7c-0.1-0.7-0.2-1.4-0.5-2.1c-0.2-0.7-0.6-1.4-1-2c-0.5-0.7-1-1.4-1.7-2
			c-0.8-0.8-1.8-1.4-2.9-1.8c-0.9-0.4-1.9-0.7-2.9-0.9c-1.4-0.3-2.9-0.3-4.3-0.2c-1.2,0.1-2.5,0.3-3.7,0.7c-0.9,0.3-1.8,0.7-2.6,1.3
			c-1.1,0.7-2.1,1.6-2.9,2.7c-0.4,0.6-0.8,1.2-1.1,1.8c-0.6,1.3-0.8,2.7-0.7,4.1C16,24.3,16.1,24.4,16.1,24.6z"/>
		<path d="M28.2,54.5c-1.9,0-3.8,0-5.7,0c-2.1,0-4.3,0-6.4,0.1c-1.6,0-3.3,0-4.9,0.1c-1.6,0-3.3,0.1-5,0.1c-0.2,0-0.4,0-0.7,0
			c-0.1,0-0.1,0-0.1-0.1c0,0,0-0.1,0-0.1c0-0.4,0-0.4,0.4-0.4c3.4,0,6.8-0.1,10.2-0.1c2.8,0,5.7-0.1,8.5-0.1c2.1,0,4.3,0,6.4,0
			c2.5,0,5.1,0,7.6,0s5.1,0,7.6,0c1.5,0,2.9,0,4.4,0c0.1,0,0.2,0,0.2,0.2c0,0.4,0,0.4-0.4,0.4c-2.6,0-5.2,0-7.8,0
			c-1.9,0-3.7,0-5.6,0c-1.3,0-2.6,0-3.9,0c-1.3,0-2.6,0-3.9,0C28.9,54.5,28.6,54.5,28.2,54.5L28.2,54.5z"/>
		<path d="M5.5,48l1.8,0c2.2,0,4.5-0.1,6.7-0.1c3.2,0,6.4,0,9.6-0.1c2.1,0,4.2,0,6.4,0c2.3,0,4.7,0,7,0c2.7,0,5.5,0,8.2,0
			c1.8,0,3.6,0,5.3,0c0.1,0,0.1,0,0.2,0c0.1,0,0.2,0.1,0.2,0.2c0,0.4,0,0.4-0.4,0.4l-5.8,0c-2.2,0-4.4,0-6.6,0c-1.7,0-3.5,0-5.2,0
			c-2.3,0-4.7,0-7,0c-1.8,0-3.7,0-5.5,0c-2.1,0-4.3,0-6.4,0c-1.8,0-3.6,0-5.4,0.1c-0.9,0-1.8,0-2.7,0c-0.1,0-0.2,0-0.2-0.2
			C5.5,48.3,5.5,48.2,5.5,48z"/>
		<path d="M20,3.3c0.2-0.1,0.4-0.2,0.6-0.2c0,0,0.1,0,0.1,0.1c0.3,0.4,0.6,0.8,0.9,1.2c0,0.1,0.1,0.1,0.1,0.2c0,0,0.1,0,0.1,0
			c0.3-0.1,0.7-0.3,1-0.4c-0.1-0.2-0.2-0.4-0.3-0.6c-0.2-0.4-0.2-0.4,0.2-0.5C23,2.9,23,2.9,23.1,3.1c0.1,0.2,0.2,0.4,0.3,0.6
			c0,0.1,0.1,0.1,0.2,0.1c0.3-0.1,0.5-0.2,0.8-0.2c0,0,0.1-0.1,0.1-0.1c0-0.1,0-0.1,0-0.1c-0.1-0.5,0.1-0.9,0.6-1
			c0.3-0.1,0.7-0.2,1-0.2c0.1,0,0.3,0,0.4,0c0.1,0,0.2,0.1,0.2,0.2c0.1,0.2,0.1,0.5,0.2,0.7c0,0.1,0.1,0.1,0.1,0.1
			c0.3,0,0.6,0,0.9,0c0.1,0,0.2,0,0.2-0.2c0-0.5,0-1,0.1-1.5c0-0.1,0-0.2,0.2-0.2c0.2,0,0.4,0,0.5,0c0.1,0.1,0,0.3,0,0.5
			c0,0.4,0,0.8-0.1,1.2c0,0.1,0,0.2,0.1,0.2c0.3,0,0.6,0,0.9,0c0.1,0,0.1,0,0.2-0.1c0.1-0.5,0.2-0.9,0.2-1.4c0-0.3,0-0.3,0.3-0.2
			c0.5,0,0.5,0,0.4,0.5s-0.2,1-0.2,1.4c0,0.2-0.2,0.3-0.4,0.3c-0.9,0-1.7-0.1-2.6-0.1c-0.4,0-0.9,0.1-1.3,0.2
			c-0.5,0.1-1,0.2-1.5,0.2c-0.5,0.1-1,0.2-1.5,0.4c-0.6,0.2-1.1,0.4-1.7,0.7c-0.2,0.1-0.4,0-0.5-0.2C20.8,4.4,20.4,3.8,20,3.3z
			 M25.4,3.4c0.3,0,0.5-0.1,0.8-0.1c0,0,0.1-0.1,0.1-0.1c0-0.2-0.1-0.3-0.1-0.5c0,0-0.1-0.1-0.1-0.1c-0.2,0-0.4,0.1-0.6,0.1
			c-0.2,0.1-0.3,0.4-0.2,0.6C25.2,3.4,25.3,3.4,25.4,3.4C25.3,3.4,25.3,3.4,25.4,3.4L25.4,3.4z"/>
		<path d="M39.2,7c0.2,0.2,0.4,0.3,0.6,0.5c0.3,0.3,0.3,0.3,0.6,0c0.4-0.3,0.8-0.6,1.3-0.9c0.1,0,0.1,0,0.2,0
			c0.1,0.1,0.3,0.2,0.4,0.4c-0.2,0.2-0.4,0.3-0.7,0.5c-0.4,0.3-0.7,0.6-1.1,0.8c-0.2,0.2-0.4,0.2-0.6,0c-0.5-0.7-1.2-1-1.9-1.5
			c-0.3-0.2-0.6-0.4-0.9-0.6c-0.5-0.3-0.9-0.6-1.4-0.8c-0.6-0.3-1.2-0.5-1.9-0.8c-0.3-0.1-0.6-0.2-0.8-0.3c-0.3-0.1-0.4-0.2-0.2-0.5
			c0.3-0.5,0.5-1.1,0.8-1.6c0-0.1,0.1-0.2,0.2-0.1c0,0,0,0,0,0c0.1,0.1,0.3,0.1,0.5,0.1C34,2.8,33.7,3.4,33.4,4
			c0.1,0,0.1,0.1,0.2,0.1c0.2,0.1,0.5,0.1,0.7,0.2c0.1,0.1,0.2,0,0.2,0c0,0,0,0,0,0C34.7,4,34.8,3.7,35,3.5c0-0.1,0.1-0.1,0.2-0.1
			c0.2,0.1,0.3,0.1,0.5,0.2c-0.2,0.3-0.3,0.6-0.5,0.9c-0.1,0.1-0.1,0.2,0.1,0.2c0.2,0.1,0.5,0.2,0.7,0.3c0.1,0.1,0.2,0,0.3-0.1
			c0.3-0.4,0.7-0.9,1-1.3c0.1-0.1,0.1-0.1,0.2-0.1c0.1,0.1,0.3,0.1,0.5,0.2c0,0.1-0.1,0.1-0.1,0.2c-0.3,0.4-0.6,0.8-1,1.2
			c-0.1,0.2-0.1,0.2,0,0.3c0.3,0.2,0.6,0.3,0.8,0.5c0,0,0.1,0,0.1,0c0-0.1,0-0.2,0-0.3c0-0.3,0.2-0.5,0.5-0.5c0.3,0,0.5,0,0.7,0.1
			c0.3,0.2,0.6,0.4,0.8,0.6c0.2,0.1,0.3,0.4,0.2,0.6c-0.1,0.2-0.3,0.3-0.5,0.3C39.4,6.9,39.3,6.9,39.2,7L39.2,7z M38.5,6.5
			c0.3,0,0.6-0.1,0.8-0.1c0.1,0,0.2-0.1,0.1-0.2c-0.2-0.2-0.4-0.3-0.6-0.4c-0.1-0.1-0.2,0-0.2,0.1C38.5,6.1,38.5,6.3,38.5,6.5
			L38.5,6.5z"/>
		<path d="M9.1,13.9l0.2-0.4c0.1-0.1,0.1-0.1,0.2-0.1c0.7,0.3,1.4,0.5,2.1,0.8c0.2,0.1,0.3,0.2,0.1,0.4c-0.6,0.9-0.9,1.8-1.4,2.7
			C10,18,9.8,18.7,9.5,19.4C9.3,20,9.1,20.5,8.9,21c-0.1,0.2-0.2,0.2-0.4,0.2c-0.7-0.2-1.5-0.3-2.3-0.5c-0.1,0-0.2-0.1-0.1-0.2
			c0,0,0,0,0-0.1c0.1-0.3,0.1-0.3,0.5-0.3c0.5,0.1,1.1,0.3,1.6,0.4c0.1,0,0.2,0,0.2-0.1c0.1-0.3,0.2-0.6,0.3-1
			c-0.1,0-0.2,0.1-0.3,0.1c-0.2,0-0.3,0.1-0.5,0.1c-0.3,0-0.5-0.3-0.5-0.6c0,0,0-0.1,0-0.1c0.1-0.4,0.2-0.7,0.4-1
			c0.2-0.3,0.6-0.5,1-0.3C9,17.9,9.1,18,9.2,18.1c0.1,0.1,0.1,0.1,0.2,0.2l0.4-0.9c-0.1-0.1-0.3-0.1-0.4-0.2
			c-0.4-0.1-0.7-0.6-0.5-1.1c0.1-0.3,0.3-0.5,0.4-0.8c0.1-0.2,0.3-0.2,0.4-0.2c0.3,0.1,0.6,0.2,0.9,0.3c0.1,0,0.1,0,0.2-0.1
			c0.1-0.2,0.2-0.4,0.3-0.5c0.1-0.1,0-0.1-0.1-0.2c-0.6-0.2-1.1-0.4-1.7-0.7C9.2,13.9,9.2,13.9,9.1,13.9z M10.4,16
			c-0.3-0.1-0.5-0.2-0.8-0.2c0,0-0.1,0-0.1,0c-0.1,0.1-0.1,0.2-0.2,0.4c-0.1,0.2,0,0.4,0.2,0.4c0.1,0.1,0.2,0.1,0.4,0.1
			c0.1,0,0.1,0,0.1-0.1C10.2,16.5,10.3,16.2,10.4,16z M9.1,18.9l-0.4-0.5c-0.1-0.1-0.2-0.1-0.3,0c-0.1,0.2-0.1,0.3-0.2,0.5
			c0,0.1,0,0.2,0,0.3c0.1,0,0.2,0,0.2,0c0.1,0,0.1,0,0.2-0.1C8.7,19,8.9,19,9.1,18.9z"/>
		<path d="M44.3,11.2c-0.2-0.2-0.3-0.5-0.6-0.5c-0.1,0-0.3,0-0.4,0.1c-0.3,0.2-0.3,0.2-0.1,0.4c0,0,0.1,0.1,0.1,0.2
			c-0.1,0.1-0.2,0.1-0.4,0.2c-0.1,0-0.1,0-0.2-0.1c-0.1-0.2-0.3-0.5-0.4-0.7c0-0.1,0-0.2,0-0.2c0.3-0.2,0.7-0.5,1.1-0.5
			c0.4,0,0.7,0.2,0.9,0.4c0.2,0.2,0.3,0.4,0.5,0.6c0.1,0.1,0.1,0.3,0,0.4c0,0-0.1,0.1-0.1,0.1c-0.3,0.2-0.6,0.3-0.9,0.5
			c0.2,0.2,0.3,0.5,0.5,0.7c0,0,0.1,0,0.2,0c0.3-0.1,0.6-0.3,0.9-0.4c0.1-0.1,0.2,0,0.2,0.1s0.1,0.2,0.2,0.3l-1.2,0.6
			c0.1,0.2,0.3,0.5,0.4,0.7c0,0,0.1,0,0.2,0c0.3-0.1,0.6-0.2,1-0.4c0.1,0,0.2,0,0.2,0.1c0,0,0,0,0,0c0.1,0.1,0.1,0.2,0.2,0.4
			c-0.3,0.1-0.6,0.2-0.9,0.4c-0.4,0.1-0.4,0.1-0.2,0.5c0.1,0.1,0.1,0.2,0.2,0.3c0.1,0.2,0.2,0.2,0.3,0.1c0.6-0.2,1.2-0.4,1.7-0.6
			c0.1,0,0.2,0,0.2,0.1c0.1,0.1,0.1,0.2,0.2,0.4l-0.9,0.3c0.2,0.2,0.3,0.3,0.5,0.5c0.2,0.3,0.3,0.6,0.4,0.9c0.1,0.1,0,0.3-0.1,0.3
			c0,0,0,0-0.1,0c-0.4,0.1-0.9,0.3-1.3,0.4c-0.2,0.1-0.3,0-0.4-0.2c0,0,0,0,0,0c-0.3-0.6-0.6-1.3-0.9-1.9c-0.5-0.9-1-1.7-1.5-2.5
			c-0.2-0.4-0.5-0.7-0.7-1.1c-0.1-0.2-0.1-0.3,0.1-0.4C43.6,11.5,43.9,11.3,44.3,11.2z M47.6,16.9c-0.1-0.2-0.2-0.4-0.3-0.6
			c-0.2-0.4-0.5-0.6-1-0.4c-0.1,0-0.1,0.1-0.1,0.2c0.2,0.3,0.3,0.6,0.5,0.9c0,0.1,0.1,0.1,0.2,0.1C47.1,17.1,47.3,17,47.6,16.9z"/>
		<path d="M51.7,37.1c0,0.2,0,0.3-0.1,0.4c0,0.1-0.1,0.1-0.1,0.1c-0.6,0-1.2-0.1-1.8-0.1c-0.2,0-0.3,0-0.5,0c-0.3,0-0.4-0.1-0.3-0.4
			c0.1-0.5,0.1-0.9,0.2-1.4c0.1-0.7,0.1-1.4,0.2-2.1c0-0.6,0-1.2,0-1.9c0-0.2,0-0.2,0.2-0.2c0.1,0,0.2,0,0.3,0c0,0.3,0,0.6,0,0.8
			v0.1c0,0.4,0,0.4,0.4,0.3c0.3-0.1,0.5-0.3,0.5-0.6c0-0.1,0-0.2,0-0.3c0,0,0-0.1,0-0.1c0,0,0.1-0.1,0.1-0.1c0.1,0,0.4-0.1,0.4,0.1
			c0.1,0.4,0,0.9-0.3,1.2c-0.2,0.3-0.6,0.4-0.9,0.4c-0.1,0-0.2,0.1-0.2,0.2c0,0.1,0,0.3,0,0.4c0,0.1,0.1,0.2,0.2,0.2s0.2,0,0.3,0
			c0.5,0,1,0.6,0.9,1.1c0,0.2,0,0.4-0.1,0.6c0,0.2-0.1,0.3-0.3,0.3c0,0,0,0-0.1,0c-0.3,0-0.6,0-0.9,0c-0.1,0-0.2,0-0.2,0.2
			c0,0.1,0,0.3-0.1,0.4c0,0.1,0,0.2,0.1,0.2c0.6,0,1.2,0.1,1.7,0.2C51.4,37.1,51.5,37.1,51.7,37.1z M50.1,35.5c0.1,0,0.2,0,0.3,0
			c0,0,0.1,0,0.1-0.1c0-0.2,0-0.3,0-0.5c0-0.2-0.2-0.3-0.5-0.3c-0.3,0-0.3,0-0.4,0.3C49.6,35.5,49.6,35.5,50.1,35.5L50.1,35.5z"/>
		<path d="M50.8,26.8c0,0.2,0,0.4,0,0.6l-0.4,0c-0.3,0-0.6,0-0.8,0.1c-0.2,0-0.1,0.1-0.1,0.2c0,0.1,0,0.2,0.2,0.2c0.3,0,0.7,0,1-0.1
			c0.2,0,0.2,0,0.2,0.2c0,0.1,0,0.2,0,0.4c-0.4,0-0.8,0.1-1.2,0.1c-0.1,0-0.2,0-0.2,0.2c0,0.3,0,0.3,0.2,0.3c0.3,0,0.7,0,1-0.1
			c0.1,0,0.2,0,0.2,0.2s0,0.2,0,0.4L50,29.5c-0.2,0-0.4,0-0.5,0c-0.2,0-0.3-0.1-0.3-0.2c0,0,0,0,0-0.1c-0.1-0.9-0.2-1.8-0.3-2.7
			c0-0.2-0.1-0.5-0.1-0.7c0-0.3,0-0.4,0.3-0.4s0.6-0.1,0.9-0.1c0.1,0,0.2-0.1,0.1-0.2c0-0.3-0.1-0.5-0.4-0.6c-0.2,0-0.3,0-0.5,0
			c0,0-0.1,0.1-0.1,0.1c0,0,0,0.1,0,0.1c0,0.1,0,0.3,0,0.3c-0.1,0-0.3,0.1-0.4,0.1c0,0-0.1-0.1-0.1-0.1c0-0.2,0-0.5,0-0.7
			c0-0.2,0.1-0.3,0.3-0.3c0.2,0,0.4,0,0.6-0.1c0.6-0.1,1.1,0.3,1.2,0.9c0,0,0,0,0,0.1c0,0.2,0,0.3,0.1,0.5c0,0.2-0.1,0.4-0.2,0.4
			c0,0,0,0-0.1,0c-0.3,0-0.6,0.1-0.9,0.1c-0.1,0-0.2,0.1-0.1,0.2c0,0.2,0.1,0.4,0.1,0.6c0,0.1,0.1,0.2,0.2,0.2c0.3,0,0.6,0,1-0.1
			C50.6,26.8,50.7,26.8,50.8,26.8z"/>
		<path d="M19.7,5.6c-0.2-0.3-0.6-0.4-1-0.2c-0.3,0.1-0.5,0.2-0.8,0.4c-0.1,0.1-0.2,0.1-0.3-0.1c0-0.1-0.1-0.1-0.2-0.2c0,0,0,0,0,0
			c0.5-0.3,1-0.6,1.5-0.7c0.4-0.1,0.7,0,1,0.3c0.1,0.1,0.2,0.2,0.4,0l0.3,0.3c-0.2,0.1-0.4,0.3-0.6,0.4c-0.6,0.4-1.2,0.7-1.8,1.1
			c-0.3,0.2-0.6,0.5-0.9,0.8c-0.3,0.2-0.6,0.5-0.9,0.7l-0.1,0c-0.2,0.2-0.2,0.3,0,0.5c0.1,0.1,0.3,0.2,0.5,0.4
			c-0.1,0.1-0.3,0.3-0.4,0.4c0,0-0.1,0-0.1,0c-0.2-0.2-0.4-0.3-0.6-0.5c-0.2-0.2-0.2-0.5,0-0.7c0.1-0.1,0.1-0.2,0-0.2
			c-0.2-0.1-0.3-0.3-0.4-0.4c-0.2-0.3,0-0.6,0.2-0.9c0.2-0.2,0.5-0.4,0.7-0.6c0.1-0.1,0.4-0.1,0.5,0c0,0,0,0,0,0
			c0.2,0.2,0.4,0.3,0.7,0.5c0.1,0.1,0.2,0.1,0.2,0C18.2,6.5,18.6,6.3,19,6C19.2,5.9,19.4,5.8,19.7,5.6L19.7,5.6z M17.2,7.3
			c-0.1-0.1-0.2-0.2-0.3-0.2c-0.4-0.3-0.4-0.3-0.7,0c-0.1,0.1-0.2,0.3-0.2,0.4c0.1,0.1,0.3,0.3,0.4,0.4c0,0,0.1,0,0.1,0
			C16.8,7.7,17,7.5,17.2,7.3z"/>
		<path d="M4.5,34.9l0-0.6c0.3,0,0.5-0.1,0.8-0.1c0.4,0,0.9,0,1.3-0.1c0.1,0,0.2,0,0.2-0.2c0-0.2,0-0.5,0-0.8l-1.4,0
			c0-0.2,0-0.3,0-0.5c0,0,0.1-0.1,0.1-0.1c0.3,0,0.7,0,1,0c0.1,0,0.1,0,0.2,0v-0.9c-0.1,0-0.2,0.1-0.3,0.1c-0.5,0.1-1-0.3-1.1-0.8
			c0,0,0,0,0,0c0-0.4,0-0.7,0-1.1h0.4c0.1,0,0.2,0.1,0.2,0.2c0,0.2,0,0.5,0,0.7c0,0.2,0.2,0.5,0.4,0.5c0,0,0,0,0,0
			c0.2,0,0.5-0.2,0.5-0.4c0,0,0,0,0,0c0-0.3,0-0.6,0-0.9h0.6c0,0.2,0,0.4,0,0.6c0,1.3,0,2.6,0,3.9c0,0.3-0.1,0.4-0.4,0.4
			c-0.7,0-1.5,0.1-2.2,0.1L4.5,34.9z"/>
		<path d="M50.5,20.9l-1.3,0.3l-0.9,0.2c-0.3,0.1-0.5,0.1-0.6-0.3c-0.1-0.3-0.2-0.5-0.3-0.8c0-0.1-0.1-0.2-0.3-0.2
			c-0.4,0-0.7-0.1-1-0.4c-0.1-0.2-0.3-0.3-0.4-0.5c-0.1-0.1,0-0.2,0.1-0.2c0.1,0,0.3-0.1,0.4-0.1c0.1,0,0.1,0.2,0.2,0.3
			c0.1,0.2,0.4,0.3,0.7,0.3c-0.1-0.2-0.1-0.3-0.2-0.5c-0.1-0.5,0-0.7,0.4-0.9c0.7-0.3,1.4,0,1.6,0.7c0.1,0.2,0.1,0.3,0.2,0.5
			c0.1,0.1,0,0.3-0.1,0.4c0,0-0.1,0-0.1,0c-0.3,0.1-0.6,0.2-0.9,0.3c-0.1,0-0.1,0.1-0.1,0.2c0.1,0.2,0.1,0.4,0.2,0.6
			c0,0,0.1,0.1,0.1,0.1c0.5-0.1,1.1-0.2,1.6-0.3l0.1,0C50.3,20.3,50.4,20.4,50.5,20.9z M47.4,18.8c0,0.5,0.3,0.7,0.7,0.5
			c0,0,0.1,0,0.1,0c0.4-0.1,0.4-0.1,0.2-0.5c-0.2-0.3-0.5-0.4-0.8-0.2c0,0-0.1,0.1-0.1,0.1C47.4,18.8,47.4,18.8,47.4,18.8z"/>
		<path d="M24.1,50.7c-0.1,0.2-0.2,0.4-0.2,0.6c-0.1,0.3-0.2,0.7-0.4,1c0,0-0.1,0.1-0.1,0.1c0,0,0,0,0,0c-0.2,0-0.4,0.1-0.5,0
			c-0.1-0.1-0.2-0.3-0.2-0.4c-0.1-0.4-0.3-0.8-0.4-1.1c0-0.1-0.1-0.1-0.1-0.1c0,0.1,0,0.1,0,0.2c0,0.5,0,0.9,0,1.4
			c0,0.1,0,0.2-0.2,0.2c-0.5,0-0.5,0-0.5-0.5c0-0.6,0-1.1,0-1.7c0-0.1,0-0.2,0.2-0.2c0.2,0,0.4,0,0.7,0c0.2,0,0.2,0.1,0.2,0.2
			c0.2,0.4,0.3,0.8,0.5,1.2c0,0,0.1,0.1,0.1,0.1c0-0.1,0.1-0.1,0.1-0.2c0.2-0.4,0.3-0.8,0.5-1.2c0-0.1,0.1-0.1,0.2-0.1
			c0.3,0,0.5,0,0.8,0c0.1,0,0.1,0,0.1,0.1c0,0.7,0,1.4,0,2.2c0,0,0,0,0,0h-0.6L24.1,50.7L24.1,50.7z"/>
		<path d="M18.1,50.7c0,0.5,0,1,0,1.5c0,0.2,0,0.2-0.2,0.2c-0.4,0-0.4,0-0.4-0.4c0-0.6,0-1.1,0-1.7c0-0.2,0.1-0.2,0.2-0.2
			c0.2,0,0.4,0,0.7,0c0.1,0,0.2,0,0.2,0.1c0.2,0.4,0.3,0.9,0.5,1.3c0,0,0,0.1,0.1,0.1c0.1-0.1,0.1-0.2,0.1-0.4
			c0.1-0.4,0.3-0.7,0.4-1.1c0-0.1,0.1-0.1,0.1-0.1c0.3,0,0.5,0,0.8,0c0,0,0.1,0.1,0.1,0.1c0,0.7,0,1.4,0,2.1c0,0.1,0,0.1-0.1,0.1
			c-0.2,0-0.3,0-0.5,0v-1.8c0,0,0,0.1-0.1,0.1c-0.2,0.5-0.4,1-0.5,1.4c0,0.2-0.2,0.3-0.4,0.3c-0.4,0-0.4,0-0.5-0.4
			c-0.1-0.4-0.3-0.8-0.4-1.2C18.2,50.8,18.2,50.7,18.1,50.7L18.1,50.7z"/>
		<path d="M5.5,35.9c0-0.2,0-0.3,0-0.5c0,0,0.1-0.1,0.1-0.1c0.5,0,1.1-0.1,1.6-0.1c0.2,0,0.3,0.1,0.3,0.3c0.1,0.5,0.1,1.1,0.1,1.6
			c0,0.2-0.1,0.3-0.3,0.3c-0.3,0-0.6,0.1-0.9,0.1c-0.1,0-0.2,0-0.1,0.2c0,0.1,0,0.2,0,0.2c0,0.2,0.2,0.4,0.4,0.4c0,0,0.1,0,0.1,0
			c0.4,0,0.4,0,0.4-0.4c0-0.1,0-0.1,0.1-0.1c0.4-0.1,0.5-0.1,0.5,0.4c0,0.1,0,0.3,0,0.4c0,0.2-0.1,0.3-0.3,0.3c0,0,0,0,0,0
			c-0.3,0-0.6,0.1-0.9,0.1c-0.4,0-0.7-0.3-0.8-0.7c-0.1-0.3-0.1-0.5-0.1-0.8c0-0.3,0.1-0.4,0.4-0.4c0.3,0,0.6-0.1,0.9-0.1
			c0.1,0,0.2,0,0.1-0.1c0-0.3,0-0.5-0.1-0.8c0-0.1-0.1-0.1-0.2-0.1c-0.3,0-0.7,0.1-1,0.1C5.6,35.9,5.5,35.9,5.5,35.9z"/>
		<path d="M45.8,51.2l0.2,0.1c0.2,0.1,0.4,0.3,0.4,0.5c0,0.2-0.2,0.4-0.4,0.5c-0.2,0.1-0.4,0.1-0.7,0.1c-0.6,0-1.1,0-1.7,0
			c-0.1,0-0.1,0-0.1-0.1c0-0.7,0-1.4,0-2.1c0-0.1,0-0.1,0.1-0.1c0.5,0,1.1,0,1.6,0c0.2,0,0.5,0.1,0.7,0.2c0.4,0.2,0.4,0.6,0,0.8
			L45.8,51.2z M44.8,52.1L44.8,52.1c0.2,0,0.4,0,0.7-0.1c0.1,0,0.2-0.1,0.2-0.3c0-0.1-0.1-0.3-0.3-0.3c0,0,0,0,0,0
			c-0.4,0-0.8,0-1.2-0.1c0,0-0.1,0.1-0.1,0.1c0,0.1,0,0.3,0,0.4s0,0.2,0.2,0.2C44.5,52,44.7,52.1,44.8,52.1L44.8,52.1z M44.8,50.4
			L44.8,50.4l-0.2,0c-0.4,0-0.3,0-0.3,0.4c0,0.2,0.1,0.2,0.2,0.2c0.2,0,0.5,0,0.7,0c0.1,0,0.2,0,0.3-0.1c0.1,0,0.1-0.1,0.2-0.2
			c0-0.1-0.1-0.2-0.2-0.2C45.2,50.5,45,50.5,44.8,50.4L44.8,50.4z"/>
		<path d="M33.7,50.9c0,0.1,0,0.2,0,0.2c0,0.4,0,0.7,0,1.1c0,0.1,0,0.2-0.2,0.2h-0.1c-0.4,0-0.4,0-0.4-0.4c0-0.6,0-1.2,0-1.8
			c0-0.1,0-0.1,0.1-0.1c0,0,0,0,0,0c0.5-0.1,0.7,0.2,0.9,0.5c0.3,0.3,0.6,0.6,0.9,0.9c0,0,0.1,0.1,0.1,0.1v-1.5c0.2,0,0.4,0,0.6,0
			c0,0,0.1,0.1,0.1,0.1c0,0.7,0,1.4,0,2.1c0,0.1-0.1,0.1-0.1,0.1c-0.1,0-0.3,0-0.4,0c-0.1,0-0.1,0-0.2-0.1
			C34.6,51.8,34.2,51.4,33.7,50.9z"/>
		<path d="M10.9,52.5c0-0.5,0-1.1,0-1.6c0-0.2,0-0.4,0-0.6c0-0.1,0-0.1,0.2-0.2c0.3-0.1,0.6,0,0.8,0.3c0.3,0.4,0.7,0.7,1,1.1
			c0,0,0.1,0.1,0.1,0.1c0-0.1,0-0.2,0-0.3c0-0.4,0-0.7,0-1.1c0-0.1,0-0.2,0.2-0.2c0.5,0,0.5,0,0.5,0.5c0,0.6,0,1.1,0,1.7
			c0,0.2-0.1,0.2-0.2,0.2c-0.4,0.1-0.7-0.2-0.9-0.5c-0.2-0.3-0.5-0.6-0.8-0.9c0,0-0.1-0.1-0.1-0.1l-0.1,0c0,0.3,0,0.6,0,0.8
			c0,0.2,0,0.3,0,0.5c0,0.1,0,0.1-0.1,0.1C11.2,52.5,11,52.5,10.9,52.5z"/>
		<path d="M37.2,50.9c0,0.2,0,0.3,0,0.5c0,0.3,0,0.6,0,0.9c0,0.1,0,0.1-0.2,0.2c-0.5,0-0.5,0-0.5-0.4c0-0.6,0-1.1,0-1.7
			c0-0.1,0-0.1,0-0.2c0.2,0,0.4,0,0.6,0c0,0,0.1,0.1,0.1,0.1c0.4,0.5,0.8,0.9,1.2,1.4c0,0,0.1,0.1,0.1,0.1c0-0.3,0-0.5,0-0.7
			c0-0.2,0-0.4,0-0.7c0-0.1,0-0.2,0.2-0.2c0.5,0,0.5,0,0.5,0.5c0,0.6,0,1.1,0,1.7c0,0.1,0,0.2-0.2,0.2c-0.5,0-0.5,0-0.9-0.4
			C37.9,51.6,37.6,51.3,37.2,50.9L37.2,50.9z"/>
		<path d="M10.2,52.1C10.2,52.2,10.2,52.2,10.2,52.1c0,0.4,0.1,0.4-0.3,0.4c-0.8,0-1.5,0-2.3,0c0-0.1,0-0.1,0-0.2c0-0.7,0-1.3,0-2
			c0-0.1,0.1-0.2,0.2-0.2c0.7,0,1.4,0,2.2,0c0.2,0,0.2,0,0.2,0.2c0,0.1,0,0.1,0,0.2H9.6c-0.4,0-0.7,0-1.1,0c-0.1,0-0.2,0.1-0.2,0.2
			c0,0.1,0,0.2,0,0.3l1.7,0c0,0.1,0,0.2,0,0.3c0,0-0.1,0.1-0.2,0.1c-0.4,0-0.9,0-1.3,0c-0.2,0-0.3,0-0.2,0.2c0,0,0,0,0,0.1
			c0,0.4,0,0.4,0.4,0.4l1.3,0L10.2,52.1z"/>
		<path d="M14.3,11.8c0.3-0.5,0.3-0.6,0-0.9c-0.1,0.1-0.2,0.2-0.3,0.3c-0.3,0.4-0.7,0.6-1.1,0.4c-0.7-0.2-1-0.7-0.6-1.3
			c0.1-0.2,0.3-0.4,0.5-0.6c0.1-0.2,0.3-0.2,0.5-0.1c0.4,0.2,0.9,0.5,1.3,0.7c0.1,0.1,0.3,0.2,0.4,0.4c0.2,0.3,0.1,0.6,0,0.9
			C14.7,12.1,14.8,12.1,14.3,11.8z M13.3,11.2c0.2,0,0.5-0.3,0.5-0.5c0-0.1,0-0.1-0.1-0.1c-0.2-0.1-0.4-0.2-0.6-0.3c0,0-0.1,0-0.1,0
			c-0.1,0.1-0.2,0.3-0.3,0.4C12.7,10.9,13,11.2,13.3,11.2z"/>
		<path d="M15.6,50.1c0.4,0,0.7,0,1,0.2c0.1,0,0.1,0.1,0.1,0.1c0,0.1,0.1,0.2,0.1,0.3c-0.1,0-0.2,0-0.2,0c-0.1,0-0.1,0-0.2,0
			c-0.1,0-0.3,0-0.4-0.1c0-0.1-0.1-0.1-0.2-0.1c-0.2,0-0.5,0-0.7,0c-0.1,0-0.1,0.1-0.2,0.2c0.1,0.1,0.1,0.2,0.2,0.2
			c0.2,0.1,0.5,0.1,0.7,0.1c0.2,0,0.5,0.1,0.7,0.2c0.3,0.1,0.4,0.3,0.4,0.6c0,0.3-0.2,0.5-0.5,0.6c-0.6,0.2-1.1,0.2-1.7,0
			c-0.2-0.1-0.5-0.3-0.5-0.5c0-0.1,0-0.1,0.1-0.2c0.2,0,0.3,0,0.5,0c0,0,0.1,0,0.1,0.1c0.1,0.2,0.3,0.3,0.5,0.3c0.2,0,0.5,0,0.7-0.1
			c0.1,0,0.2-0.1,0.2-0.2c0-0.1-0.1-0.2-0.2-0.2c-0.2,0-0.3-0.1-0.5-0.1c-0.2-0.1-0.5-0.1-0.7-0.2c-0.3-0.1-0.5-0.3-0.5-0.6
			c0-0.2,0.3-0.5,0.6-0.5c0.1,0,0.2-0.1,0.3-0.1C15.3,50.1,15.4,50.1,15.6,50.1z"/>
		<path d="M46.7,52.4c0.2-0.4,0.4-0.7,0.5-1c0.2-0.4,0.5-0.8,0.7-1.2c0.1-0.1,0.2-0.2,0.3-0.2c0.4-0.1,0.6,0.1,0.8,0.5
			c0.3,0.6,0.7,1.2,1.1,1.8c0,0,0,0.1,0,0.1c-0.2,0-0.4,0-0.7,0c0,0-0.1-0.1-0.1-0.1c-0.3-0.4-0.2-0.4-0.7-0.4c-0.3,0-0.5,0-0.8,0
			c-0.1,0-0.2,0.1-0.2,0.2c0,0.3-0.3,0.4-0.5,0.4c0,0-0.1,0-0.1,0C46.9,52.4,46.8,52.4,46.7,52.4z M48.4,50.6
			c-0.2,0.3-0.3,0.6-0.5,0.9h0.9L48.4,50.6z"/>
		<path d="M43.1,52.4c-0.2,0-0.4,0-0.6,0c-0.1,0-0.1-0.1-0.2-0.1c-0.1-0.3-0.4-0.5-0.7-0.4c-0.3,0-0.6,0-0.8,0
			c-0.1,0-0.1,0.1-0.2,0.1c-0.1,0.4-0.4,0.5-0.7,0.4c-0.1,0-0.2,0-0.2,0c0.1-0.2,0.2-0.4,0.3-0.6c0.3-0.5,0.6-1,0.9-1.5
			c0.1-0.1,0.2-0.2,0.3-0.2c0.5,0,0.5,0,0.8,0.5c0.3,0.6,0.7,1.2,1.1,1.8C43.1,52.3,43.1,52.3,43.1,52.4z M41.9,51.5
			c-0.2-0.3-0.3-0.6-0.5-0.8h-0.1c-0.1,0.2-0.3,0.5-0.4,0.7c0,0,0.1,0.1,0.1,0.1C41.3,51.5,41.6,51.5,41.9,51.5z"/>
		<path d="M32.7,52.4c-0.2,0-0.4,0-0.6,0c-0.1,0-0.1-0.1-0.1-0.1c-0.1-0.4-0.4-0.5-0.8-0.4c-0.2,0-0.5,0-0.7,0c-0.1,0-0.2,0-0.2,0.1
			c-0.1,0.3-0.3,0.4-0.7,0.4c-0.1,0-0.2,0-0.2,0c0.1-0.2,0.2-0.3,0.2-0.5c0.3-0.6,0.7-1.2,1-1.8c0-0.1,0.1-0.1,0.2-0.1c0,0,0,0,0,0
			c0.6,0,0.6,0,0.9,0.5l1,1.7C32.6,52.3,32.6,52.3,32.7,52.4z M30.5,51.5l0.9,0l-0.5-0.9C30.8,50.9,30.6,51.2,30.5,51.5z"/>
		<path d="M6.1,24.3c0-0.2,0.1-0.3,0.1-0.5c0,0,0.1-0.1,0.1-0.1c0.6,0.1,1.2,0.1,1.7,0.2c0.3,0.1,0.6,0.4,0.6,0.9
			c0,0.6-0.5,1.3-1.3,1.1c-0.2,0-0.4-0.1-0.6-0.1c-0.1,0-0.2,0-0.1-0.2c0,0,0-0.1,0-0.1c0.1-0.4,0.1-0.4,0.4-0.3
			c0.2,0,0.3,0,0.5,0.1c0.2,0,0.4-0.2,0.4-0.4c0-0.3-0.1-0.4-0.3-0.5c-0.5-0.1-1-0.1-1.5-0.2L6.1,24.3z"/>
		<path d="M8,22.2c-0.6-0.1-0.9,0-1.2,1l-0.5-0.1c0,0,0,0,0-0.1c0.1-0.6,0.3-1.1,0.9-1.3c0.2-0.1,0.5-0.1,0.7-0.1c0.1,0,0.3,0,0.4,0
			c0.1,0,0.3,0.1,0.3,0.2c0,0,0,0.1,0,0.1c-0.1,0.5-0.3,1-0.4,1.5c0,0-0.1,0.1-0.1,0.1c0,0,0,0,0,0c-0.5,0-0.5,0-0.3-0.5
			C7.9,22.8,7.9,22.5,8,22.2z"/>
		<path d="M47.6,29.2c0.2,0,0.3,0,0.5,0c0,0,0.1,0.1,0.1,0.1c0,0.5,0.4,0.7,0.8,0.8c0.4,0,0.7,0.1,1.1,0.1l0.3,0c0,0.2,0,0.3,0,0.5
			c0,0,0,0.1-0.1,0.1c-0.7,0-1.3,0-1.9-0.2C47.8,30.3,47.6,29.8,47.6,29.2C47.6,29.3,47.6,29.3,47.6,29.2z"/>
		<path d="M51.5,38.4c0,0.2,0,0.3-0.1,0.5c0,0-0.1,0.1-0.1,0.1c-0.6-0.1-1.3-0.2-1.9-0.2c-0.2,0-0.4-0.1-0.7-0.1
			c-0.1,0-0.1-0.1-0.1-0.2c0-0.1,0-0.3,0.1-0.4c0.1-0.1,0.2,0,0.4,0C49.9,38.1,50.7,38.2,51.5,38.4z"/>
		<path d="M43.2,7.9c-0.3,0.2-0.5,0.4-0.8,0.5C42,8.7,41.6,9,41.2,9.3c-0.1,0.1-0.2,0.1-0.3,0c-0.1-0.1-0.2-0.2-0.3-0.3
			c0.2-0.1,0.4-0.3,0.6-0.4c0.5-0.3,1-0.6,1.4-1c0.1-0.1,0.2-0.1,0.3,0C43,7.7,43.1,7.8,43.2,7.9z"/>
		<path d="M50.8,22.1l-2.8,0.5c0-0.2-0.1-0.3-0.1-0.4c0-0.1,0-0.2,0.1-0.2c0.4-0.1,0.9-0.1,1.3-0.2c0.4-0.1,0.8-0.1,1.2-0.2
			c0.1,0,0.2,0,0.2,0.1S50.8,21.9,50.8,22.1z"/>
		<path d="M10,12.3l0.6,0.3c0.5,0.2,1.1,0.5,1.6,0.7c0.1,0.1,0.2,0.1,0.1,0.2c-0.3,0.4-0.2,0.4-0.6,0.2c-0.6-0.3-1.2-0.5-1.7-0.7
			c-0.4-0.2-0.4-0.1-0.1-0.4C9.9,12.5,10,12.4,10,12.3z"/>
		<path d="M6.5,28.5l-0.5,0c0-0.4,0.1-0.7,0.1-1.1c0,0,0-0.1,0.1-0.1c0.1,0,0.3,0,0.5,0L6.5,28.5z"/>
		<path d="M27.4,51.7c-0.2,0-0.3,0-0.5,0c-0.1,0-0.2,0-0.1-0.1c0,0,0-0.1,0-0.1c0-0.1,0-0.1,0.1-0.1c0.3,0,0.7,0,1,0
			c0.1,0,0.2,0,0.1,0.1c0,0,0,0.1,0,0.1c0,0.1-0.1,0.2-0.2,0.2C27.7,51.8,27.6,51.8,27.4,51.7L27.4,51.7z"/>
		<path d="M43.7,13.6c0.2,0,0.3,0.1,0.3,0.3c0,0.1-0.1,0.3-0.3,0.3c-0.2,0-0.3-0.2-0.4-0.3C43.4,13.7,43.5,13.5,43.7,13.6
			C43.7,13.6,43.7,13.6,43.7,13.6z"/>
		<path d="M33.9,5.5c-0.1,0-0.2,0-0.2-0.1s-0.2-0.2-0.2-0.3C33.5,5,33.6,5,33.8,4.9c0.1,0,0.2,0,0.3,0.1c0.1,0.1,0.1,0.2,0.1,0.2
			C34.1,5.4,34,5.4,33.9,5.5L33.9,5.5z"/>
		<path d="M22.4,2.8c-0.2,0-0.3-0.1-0.3-0.2c0-0.1,0.1-0.2,0.2-0.3c0.1-0.1,0.3-0.1,0.5,0c0.1,0.1,0.2,0.2,0,0.3
			C22.7,2.6,22.5,2.7,22.4,2.8z"/>
		<path d="M44.9,10.4c-0.2,0-0.4-0.1-0.4-0.3c0-0.1,0.1-0.3,0.3-0.3c0,0,0,0,0,0c0.2,0,0.4,0.2,0.4,0.3C45.1,10.3,45,10.4,44.9,10.4
			C44.9,10.4,44.9,10.4,44.9,10.4z"/>
		<path d="M43.3,13.5c-0.2,0-0.3-0.1-0.4-0.3c0-0.1,0.1-0.3,0.3-0.3c0.2,0,0.3,0.2,0.4,0.3C43.6,13.4,43.5,13.5,43.3,13.5
			C43.3,13.5,43.3,13.5,43.3,13.5z"/>
		<path d="M5.3,37.7C5.3,37.8,5.2,38,5,38c0,0,0,0,0,0c-0.2,0-0.3-0.1-0.3-0.3c0,0,0,0,0,0c0-0.1,0.1-0.3,0.2-0.3c0,0,0,0,0,0
			C5.1,37.4,5.3,37.5,5.3,37.7C5.3,37.7,5.3,37.7,5.3,37.7z"/>
		<path d="M51.2,24.9c0.2,0,0.3,0.1,0.3,0.3c0,0,0,0,0,0c0,0.2-0.1,0.3-0.3,0.3c-0.2,0-0.3-0.2-0.3-0.3C50.9,25,51,24.9,51.2,24.9
			C51.2,24.9,51.2,24.9,51.2,24.9z"/>
		<path d="M34.5,5.2c0.1,0,0.2,0.1,0.3,0.1C34.9,5.4,35,5.5,35,5.6c0,0.1-0.1,0.2-0.2,0.2c-0.2,0-0.3,0-0.4-0.1c0-0.1-0.1-0.1,0-0.2
			C34.4,5.3,34.4,5.3,34.5,5.2z"/>
		<path d="M8.3,35.9c0,0.1-0.1,0.3-0.2,0.3c0,0,0,0,0,0c-0.2,0-0.3-0.1-0.3-0.3c0,0,0,0,0,0c0-0.2,0.1-0.3,0.3-0.3
			C8.2,35.6,8.3,35.7,8.3,35.9C8.3,35.9,8.3,35.9,8.3,35.9z"/>
		<path d="M5.1,38.7c-0.2,0-0.3-0.1-0.3-0.3c0,0,0,0,0,0c0-0.2,0.1-0.3,0.3-0.3c0,0,0,0,0,0c0.2,0,0.3,0.1,0.3,0.3c0,0,0,0,0,0
			C5.4,38.5,5.3,38.7,5.1,38.7C5.1,38.7,5.1,38.7,5.1,38.7z"/>
		<path d="M4.6,33.3c-0.2,0-0.3-0.1-0.3-0.3c0-0.2,0.1-0.3,0.3-0.3c0.2,0,0.3,0.1,0.3,0.3c0,0,0,0,0,0C5,33.2,4.8,33.3,4.6,33.3
			C4.6,33.3,4.6,33.3,4.6,33.3z"/>
		<path d="M51.3,24.5c0,0.2-0.1,0.3-0.3,0.3c-0.2,0-0.3-0.2-0.3-0.3c0-0.2,0.1-0.3,0.3-0.3C51.2,24.2,51.3,24.3,51.3,24.5z"/>
		<path d="M45.3,11c-0.2,0-0.4-0.1-0.4-0.3c0-0.1,0.1-0.2,0.3-0.2c0,0,0,0,0,0c0.2,0,0.3,0.2,0.4,0.4C45.6,10.9,45.4,11,45.3,11z"/>
		<path d="M47.1,13.4c0.2,0,0.3,0.2,0.4,0.3c0,0.1-0.1,0.2-0.3,0.2c-0.2,0-0.4-0.1-0.4-0.3c0,0,0,0,0,0
			C46.8,13.4,46.9,13.4,47.1,13.4z"/>
		<path d="M19.8,7c-0.2,0-0.3-0.1-0.3-0.2c0-0.2,0.2-0.3,0.4-0.3c0.2,0,0.3,0.1,0.3,0.2C20.2,6.8,20,7,19.8,7z"/>
		<path d="M5.5,25c-0.1,0-0.3-0.1-0.3-0.3c0,0,0,0,0,0c0-0.2,0.2-0.3,0.3-0.3c0.1,0,0.3,0.1,0.3,0.3c0,0,0,0,0,0
			C5.9,24.9,5.7,25,5.5,25C5.5,25,5.5,25,5.5,25z"/>
	</g>
</g>
</svg>
