<?xml version="1.0" encoding="utf-8"?>
<!-- Generator: Adobe Illustrator 25.4.1, SVG Export Plug-In . SVG Version: 6.00 Build 0)  -->
<svg version="1.1" id="Layer_1" xmlns="http://www.w3.org/2000/svg" xmlns:xlink="http://www.w3.org/1999/xlink" x="0px" y="0px"
	 viewBox="0 0 56 56" style="enable-background:new 0 0 56 56;" xml:space="preserve">
<style type="text/css">
	.st0{fill:#202E61;}
</style>
<g>
	<g>
		<path class="st0" d="M20.8,43.2c-0.8-0.4-1.6-0.8-2.4-1.2C13,38.9,9.6,34.3,8.1,28.2c-0.4-1.8-0.7-3.6-0.7-5.5
			c0-5.1,1.7-9.7,4.9-13.6c2.5-3.1,5.6-5.5,9.4-6.8c1.8-0.7,3.8-1,5.7-1.1c3.2-0.2,6.3,0.2,9.2,1.4c4.4,1.8,7.8,5,10.3,9
			c1.5,2.5,2.5,5.1,2.9,8c0.4,2.9,0.2,5.7-0.5,8.5c-0.8,3.6-2.4,6.9-5,9.6c-1.9,2-4.1,3.6-6.5,4.8c-0.4,0.2-0.8,0.4-1.2,0.6
			c0,0,0,0-0.1,0.1c0.2,0,0.3,0,0.5,0c3.7,0,7.4,0,11.2,0c0.6,0,0.7,0.1,0.7,0.7c0,0.9,0,1.8,0,2.7c0,0.3-0.1,0.4-0.5,0.4
			c-11.9,0-23.8,0-35.7,0c-1.3,0-2.6,0-3.8,0c-0.3,0-0.5-0.1-0.5-0.4c0-0.9,0-1.9,0-2.8c0-0.4,0.2-0.6,0.5-0.5c0.1,0,0.2,0,0.3,0
			c3.7,0,7.3,0,11,0c0.2,0,0.3,0,0.5,0C20.8,43.3,20.8,43.3,20.8,43.2z M43.7,27.1c-0.1-0.9-0.2-2.3-0.5-3.8c-0.9-4-2.9-7.4-6.3-9.8
			c-3.1-2.3-6.5-3.2-10.3-2.6c-3.4,0.5-6.2,2.2-8.5,4.8c-3.2,3.6-4.6,7.9-4.4,12.7c0.1,2.5,0.7,4.9,1.8,7.2c1.3,2.6,3.1,4.8,5.6,6.4
			c2.3,1.4,4.6,2.9,6.8,4.4c0.4,0.3,0.7,0.3,1.1,0c2-1.3,4-2.7,6.1-3.9c1-0.5,1.9-1.2,2.7-1.9C41.8,37.1,43.6,32.8,43.7,27.1z
			 M17.8,39.9c0,0,0.1-0.1,0.1-0.1c-0.1-0.1-0.1-0.2-0.2-0.3c-0.1-0.2-0.3-0.3-0.4-0.5c-2.3-3-3.7-6.3-3.9-10.1
			c-0.1-2.1,0.1-4.2,0.6-6.3c1.1-4.3,3.4-7.7,7.2-10c3-1.9,6.3-2.6,9.9-2c3.8,0.7,6.9,2.7,9.2,5.8c3.1,4.1,4.2,8.8,3.4,13.9
			c-0.5,3.7-2,6.8-4.5,9.5c-0.1,0.1-0.2,0.3-0.3,0.4c0.2,0,0.3,0,0.4-0.1c0.8-0.8,1.6-1.5,2.4-2.3c2.4-2.7,3.8-5.9,4.3-9.5
			c0.4-2.8,0.4-5.6-0.2-8.4c-0.9-3.8-2.8-7-5.6-9.7c-3.9-3.7-8.4-5.4-13.8-4.5c-5.5,1-9.7,3.8-12.4,8.8c-2.1,3.7-3.1,7.6-2.7,11.9
			c0.4,4.3,1.9,8.2,4.7,11.5C16.6,38.6,17.2,39.2,17.8,39.9z M17.1,40.2c0,0,0.1-0.1,0.1-0.1c-0.2-0.2-0.3-0.4-0.5-0.6
			c-1.9-1.8-3.3-3.9-4.3-6.3c-1.7-4-2.1-8.2-1.3-12.4c1.1-6.3,4.6-10.8,10.1-13.9c3.1-1.7,6.4-2,9.8-1.6c2.6,0.3,5,1.2,7.1,2.6
			c3.6,2.5,6.1,5.9,7.6,10.1c1.2,3.4,1.4,6.9,0.8,10.5c-0.6,3.5-2,6.6-4.1,9.4c-0.5,0.6-0.9,1.1-1.4,1.7c0.1,0,0.2,0,0.3-0.1
			c0.1-0.1,0.2-0.1,0.3-0.2c2.2-1.8,3.9-4.1,5.2-6.6c2.1-4.2,2.8-8.5,2-13.1C48.1,14.9,46,11,42.7,7.8c-5.2-5-11.4-6.8-18.4-5.3
			C18.4,3.8,14,7.2,11,12.4c-3.1,5.3-3.5,11-1.8,16.9c1,3.5,3,6.5,5.6,9C15.5,39,16.3,39.6,17.1,40.2z"/>
		<path class="st0" d="M13.7,55.3c-0.4,0-0.7,0-1.1,0c0-0.1,0-0.2,0-0.3c0-1.7,0-3.4,0-5.1c0-0.4,0.1-0.5,0.5-0.5
			c0.8,0,1.5,0,2.3,0.1c0.7,0,1.2,0.4,1.4,1c0.3,0.8,0.2,1.6-0.5,2.3c-0.2,0.2-0.3,0.4-0.1,0.6c0.2,0.6,0.4,1.2,0.7,1.8
			c-0.1,0-0.1,0-0.1,0c-1.1,0.1-1.1,0.1-1.4-0.9c0-0.1-0.1-0.2-0.1-0.3c-0.3-0.8-0.3-0.8-1.1-0.7c-0.3,0-0.4,0.1-0.4,0.4
			c0,0.3,0,0.5,0,0.8C13.7,54.8,13.7,55,13.7,55.3z M14.4,50.5c-0.9,0-0.8-0.1-0.8,0.8c0,0,0,0,0,0c0,1.2,0,1.2,1.2,1.1
			c0.4,0,0.7-0.3,0.8-0.7C15.8,50.8,15.4,50.5,14.4,50.5z"/>
		<path class="st0" d="M39,52.4c-0.1,0.5-0.1,1.1-0.3,1.7c-0.1,0.3-0.3,0.6-0.5,0.8c-0.8,0.8-1.7,0.6-2.6,0.4
			c-0.8-0.1-1.3-0.8-1.4-1.6c-0.1-0.8-0.1-1.7,0-2.5c0.2-1.5,1.3-2,2.7-1.8c1.2,0.1,1.8,0.9,1.9,2.3C38.9,51.9,38.9,52.2,39,52.4
			C38.9,52.4,39,52.4,39,52.4z M37.8,52.4c0-0.4-0.1-0.7-0.1-1.1c-0.1-0.6-0.5-0.9-1-1c-0.7,0-1.1,0.2-1.2,0.9
			c-0.1,0.8-0.1,1.5,0,2.3c0.1,0.6,0.5,0.9,1.1,0.9c0.7,0,1-0.3,1.1-1C37.7,53.1,37.7,52.8,37.8,52.4z"/>
		<path class="st0" d="M45.6,55.3c0-1,0-1.9,0-2.9c0-0.9,0-1.8,0-2.7c0-0.1,0.2-0.4,0.3-0.4c0.8,0,1.6,0,2.3,0.1
			c1.2,0.1,1.7,0.7,1.8,1.8c0.1,0.8,0,1.6-0.1,2.4c-0.1,0.9-0.7,1.5-1.7,1.6c-0.2,0-0.4,0-0.6,0C47,55.3,46.3,55.3,45.6,55.3z
			 M46.7,54.3c0.3,0,0.6,0,0.8,0c0.8,0,1.2-0.4,1.2-1.2c0-0.5,0-1.1,0-1.6c0-0.6-0.3-0.9-0.9-1c-1-0.2-1.1-0.1-1.1,0.9
			C46.7,52.4,46.7,53.3,46.7,54.3z"/>
		<path class="st0" d="M41.1,49.5c0,0.8,0,1.6,0,2.3c0,0.6,0,1.2,0,1.8c0.1,0.7,0.5,0.9,1.3,0.8c0.5,0,0.8-0.4,0.8-1
			c0-1.2,0-2.3,0-3.5c0-0.6,0.4-0.5,0.7-0.5c0.4,0,0.5,0.1,0.5,0.5c0,1.3,0,2.5,0,3.8c0,1-0.7,1.7-1.8,1.7c-0.3,0-0.5,0-0.8,0
			c-1,0-1.7-0.7-1.8-1.7c0-1.3,0-2.6,0-3.9c0-0.2,0.1-0.3,0.3-0.3C40.5,49.5,40.7,49.5,41.1,49.5z"/>
		<path class="st0" d="M21.6,54.3c0,0.4,0,0.7,0,1c-0.6,0-1.2,0-1.9,0c-0.6,0-1.2,0-1.8,0c0-0.2,0-0.3,0-0.4c0-1.6,0-3.3,0-4.9
			c0-0.4,0.1-0.5,0.5-0.5c0.9,0,1.7,0,2.6,0c0.7,0,0.7,0,0.7,0.7c0,0.1,0,0.2,0,0.3c-0.7,0-1.4,0-2.1,0c-0.4,0-0.5,0.1-0.5,0.5
			c0,0.3,0,0.6,0,0.9c0.6,0,1.1,0,1.7,0c0.5,0,0.4,0.3,0.4,0.6c0,0.3-0.1,0.5-0.4,0.4c-0.4,0-0.9,0-1.3,0c-0.3,0-0.4,0.1-0.4,0.3
			c0,0.3,0,0.7,0,1.1C19.9,54.3,20.7,54.3,21.6,54.3z"/>
		<path class="st0" d="M29.5,54.3c0.5,0,1,0.1,1.5,0.1c0.2,0,0.4,0,0.5,0c0.4,0,0.6-0.3,0.6-0.7c0-0.2-0.2-0.5-0.4-0.6
			c-0.4-0.2-0.9-0.3-1.3-0.5c-0.9-0.4-1.3-1-1.1-1.9c0.1-0.8,0.7-1.3,1.7-1.3c0.7,0,1.3,0.1,2,0.2c0.1,0,0.2,0.2,0.2,0.3
			c0,0.2,0,0.4-0.1,0.7c-0.4,0-0.7-0.1-1-0.1c-0.4,0-0.7,0-1.1,0c-0.2,0-0.5,0.3-0.5,0.5c0,0.2,0.2,0.5,0.4,0.6
			c0.4,0.2,0.9,0.3,1.3,0.5c1,0.4,1.3,1,1.2,1.9c-0.2,1-0.8,1.5-1.8,1.4c-0.5,0-1.1-0.1-1.6-0.1c-0.4,0-0.6-0.2-0.4-0.6
			C29.5,54.6,29.5,54.5,29.5,54.3z"/>
		<path class="st0" d="M23.8,53.3c0,0.7,0,1.3,0,2c-0.4,0-0.8,0-1.2,0c0-0.1,0-0.2,0-0.3c0-1.7,0-3.4,0-5.1c0-0.3,0.1-0.5,0.4-0.4
			c1,0,1.9,0,2.9,0c0.5,0,0.4,0.3,0.4,0.5c0,0.3,0,0.5-0.4,0.5c-0.6,0-1.2,0-1.8,0c-0.3,0-0.4,0.1-0.4,0.3c0,0.4,0,0.7,0,1
			c0,0.3,0.1,0.4,0.4,0.4c0.5,0,0.9,0,1.4,0c0.5,0,0.4,0.3,0.4,0.5s0,0.5-0.4,0.5C25,53.3,24.4,53.3,23.8,53.3z"/>
		<path class="st0" d="M7.5,50.5c0-0.4,0-0.7,0-1c1.3,0,2.7,0,4,0c0.4,0,0.2,0.4,0.3,0.7c0,0.1-0.2,0.2-0.3,0.3c0,0-0.1,0-0.1,0
			c-0.4,0-0.9-0.1-1.1,0.1c-0.2,0.2-0.1,0.7-0.1,1.1c0,1.2,0,2.4,0,3.6c-0.4,0-0.8,0-1.2,0c0-0.1,0-0.3,0-0.5c0-1.3,0-2.6,0-3.9
			c0-0.3-0.1-0.4-0.4-0.4C8.3,50.5,7.9,50.5,7.5,50.5z"/>
		<path class="st0" d="M28.4,55.3c-0.4,0-0.8,0-1.1,0c0-0.1,0-0.2,0-0.3c0-1.7,0-3.4,0-5.1c0-0.4,0.1-0.5,0.5-0.5
			c0.8,0,0.7,0,0.7,0.7c0,1.6,0,3.1,0,4.7C28.4,55,28.4,55.1,28.4,55.3z"/>
		<path class="st0" d="M27.7,27.8c0-3.4,0-6.8,0-10.2c0-0.5,0.1-1,0.3-1.4c0.3-0.8,0.3-1.5,0.3-2.3c0-0.4,0-0.7,0-1.1
			c0-0.3,0.1-0.5,0.4-0.5c0.3,0,0.4,0.2,0.4,0.5c-0.1,1.2,0,2.3,0.5,3.4c0.3,0.6,0.3,1.2,0.3,1.8c0,6.6,0,13.2,0,19.8
			c0,0.2,0,0.4,0,0.6c-0.1,0.7-0.5,1-1.1,1c-0.7,0-1.1-0.4-1.1-1.1c0-1.7,0-3.4,0-5C27.7,31.4,27.7,29.6,27.7,27.8z"/>
		<path class="st0" d="M26.5,42.5c-0.3,0.3-0.5,0.2-0.7,0c-2.8-3.3-5.7-6.6-8.5-9.9c-0.1-0.1-0.1-0.1-0.2-0.2c0-0.1,0-0.3,0-0.4
			c0.1,0,0.3,0,0.4,0.1c0.5,0.5,0.9,1,1.3,1.6c2,2.4,4.1,4.7,6.1,7.1C25.5,41.3,25.9,41.9,26.5,42.5z"/>
		<path class="st0" d="M31.2,42.7c-0.1-0.1-0.2-0.1-0.2-0.2c0-0.1,0-0.3,0.1-0.4c0.4-0.5,0.8-1,1.2-1.5c2.5-2.8,4.9-5.7,7.4-8.5
			c0,0,0-0.1,0.1-0.1c0.1-0.1,0.3-0.1,0.4-0.2c0,0.1,0,0.4-0.1,0.5c-0.5,0.6-0.9,1.1-1.4,1.7c-2.4,2.8-4.8,5.6-7.2,8.3
			C31.4,42.5,31.3,42.6,31.2,42.7z"/>
		<path class="st0" d="M37.5,31.3c-0.1,0.2-0.2,0.3-0.3,0.5c-1.8,2.5-3.5,5-5.3,7.5c-0.1,0.2-0.2,0.4-0.4,0.6
			c-0.1,0.1-0.3,0.2-0.4,0.1c-0.3-0.1-0.1-0.3,0-0.4c0.8-1.2,1.6-2.4,2.5-3.5c1.1-1.6,2.2-3.1,3.3-4.7c0.1-0.1,0.3-0.2,0.4-0.2
			C37.3,31.1,37.4,31.3,37.5,31.3z"/>
		<path class="st0" d="M20.3,30.8c0,0.1,0.1,0.3,0.1,0.4c1.9,2.7,3.9,5.5,5.8,8.3c0.1,0.1,0,0.3,0,0.5c-0.1,0-0.3-0.1-0.4-0.1
			c-1.9-2.7-3.8-5.4-5.7-8.1c-0.1-0.1-0.2-0.2-0.2-0.3c0-0.1,0.1-0.2,0.1-0.3C20.2,30.9,20.2,30.8,20.3,30.8z"/>
		<path class="st0" d="M22.3,28.8c0.1,0.1,0.2,0.3,0.3,0.4c1,1.8,1.9,3.6,2.9,5.4c0.2,0.3,0.4,0.6,0.5,1c0.1,0.2,0,0.4,0,0.5
			c-0.1-0.1-0.4-0.2-0.4-0.3c-0.8-1.4-1.5-2.9-2.3-4.3c-0.4-0.8-0.8-1.5-1.2-2.3c0-0.1-0.1-0.2,0-0.3C22.1,28.9,22.2,28.8,22.3,28.8
			z"/>
		<path class="st0" d="M31.5,36.2c-0.4-0.1-0.4-0.3-0.3-0.5c0.5-0.9,1-1.8,1.4-2.7c0.7-1.3,1.3-2.5,2-3.8c0-0.1,0.1-0.2,0.1-0.2
			c0.1-0.1,0.2-0.1,0.4-0.1c0,0.1,0.1,0.3,0.1,0.3c-0.2,0.4-0.4,0.7-0.5,1c-1,1.9-2,3.8-3,5.7C31.6,36,31.6,36.1,31.5,36.2z"/>
	</g>
</g>
</svg>
