<?xml version="1.0" encoding="utf-8"?>
<!-- Generator: Adobe Illustrator 25.4.1, SVG Export Plug-In . SVG Version: 6.00 Build 0)  -->
<svg version="1.1" id="Layer_1" xmlns="http://www.w3.org/2000/svg" xmlns:xlink="http://www.w3.org/1999/xlink" x="0px" y="0px"
	 viewBox="0 0 32 32" style="enable-background:new 0 0 32 32;" xml:space="preserve">
<style type="text/css">
	.st0{fill:#1565C0;}
</style>
<path class="st0" d="M21,14.3c-0.7-2,0.2-5.3,0.2-5.3s-3,1.8-5.3,1.7c-2.2,0-5.1-1.7-5.1-1.7s0.8,3.3,0.1,5.4
	c-0.6,2.1-3.3,4.5-3.3,4.5s3.4,0.3,5.1,1.5s3.2,4.6,3.2,4.6s1-3.1,3.1-4.5s5.3-1.5,5.3-1.5S21.7,16.3,21,14.3L21,14.3z M18.3,19.2
	c-1.5,1.1-2.3,2.9-2.3,2.9s-1-1.9-2.4-3s-3.4-1.3-3.4-1.3c1-0.8,1.7-1.9,2-3.2c0.6-2.1,0.2-3.6,0.2-3.6s1.2,0.9,3.5,0.9
	s3.7-0.9,3.7-0.9s-0.5,2.1,0.1,3.6s2.1,3.2,2.1,3.2S19.8,18.1,18.3,19.2L18.3,19.2z M18.3,12.8c0,0-1.3,0.5-2.4,0.5
	s-2.3-0.5-2.3-0.5c0.1,0.8,0,1.5-0.2,2.3c-0.4,1.1-1.2,2.2-1.2,2.2c1.6,0.3,2.9,1.3,3.8,2.7c0,0,0.6-1.1,1.6-1.8
	c0.7-0.4,1.4-0.7,2.2-0.9c0,0-1-1-1.4-2.1C18,14.1,18.3,12.8,18.3,12.8z M26.8,16l4.4-4.9l-6.5-1.4l0.7-6.6l-6.1,2.7L16,0l-3.3,5.7
	L6.6,3.1l0.7,6.6l-6.5,1.4L5.2,16l-4.4,4.9l6.5,1.4l-0.7,6.6l6.1-2.7L16,32l3.3-5.7l6.1,2.7l-0.7-6.6l6.5-1.4L26.8,16L26.8,16z
	 M19.8,21.3c-1.1,0.8-3.8,6.5-3.8,6.5s-2-5.1-4-6.5c-2-1.3-7.2-1.6-7.2-1.6s4-3.2,4.8-6S9.1,6.5,9.1,6.5s3.9,2.8,6.8,2.8
	s7-2.8,7-2.8s-1.1,6-0.7,7.3s5,5.8,5,5.8S20.9,20.5,19.8,21.3L19.8,21.3z"/>
</svg>
